<svg viewBox="0 0 1000 1000">
    <path class="st1" d="M443.29,12.44C-80.49,62.76-161.39,811.46,316.61,985.55c15.18,5.07,30.38-5.07,30.38-25.34
		c0,0,0-81.09,0-81.09c-78.99,23.27-144.36-26.76-152.05-91.23c-5.07-20.27-15.21-35.47-30.41-50.68
		c-15.2-5.07-20.27-5.07-20.27-10.14c0-10.14,15.2-10.14,20.27-10.14c80.31,11.78,71.48,138.42,182.46,91.23
		c5.07-35.48,20.27-70.96,50.68-91.23c-190.15-29.31-265.57-217.39-141.91-354.78c-11.95-32.38-18.29-103.58,5.07-152.05
		c0,0,70.96,0,141.91,65.89c54.51-21.2,140.64-19.35,197.66,0c65.89-65.89,141.91-65.89,141.91-65.89
		c15.3,47.36,12.76,124.39,0,152.05c124.23,134.21,48.07,326.48-141.91,354.78c66.9,47.14,48.76,176.5,50.68,248.35
		c0,15.2,15.21,30.41,35.48,25.34C1222.59,784.45,1024.8-60.29,443.29,12.44z"/>
</svg>
