<svg viewBox="0 0 1000 1000">
    <path class="st1" d="M990.1,400.04c0-0.02-207.28-0.04-207.28-0.04h-83.78c0,0-149.27,0-199.04,0c-0.01,0,0.02,199.04,0.05,199.04
		c0,0,282.76,0.03,282.75,0.06c-40.43,114.81-148.77,197.61-276.81,200.12c-171.31,3.36-311.33-138.71-305.58-309.95
		c5.4-160.81,137.47-289.51,299.59-289.51c76.4,0,146.11,28.59,199.04,75.65c0,0,141.68-141.83,141.66-141.84
		C738.28,38.17,595.77-14.75,441.21,2.88C222.98,27.77,24.54,229.25,2.6,447.79c-35.69,355.47,301.29,644.68,667.11,523.78
		c141.23-46.67,252.87-157.2,300.8-298.01C1002.87,578.49,1007.32,485.34,990.1,400.04z"/>
</svg>
