<svg viewBox="0 0 1000 1000">
    <path d="M994.56,729.62c-19.12-37.25-53.25-74.45-105.08-122.99h-0.53c-33.28-35.8-61.03-45.12-49.55-84.42
			c3.08-13.35,63.62-89,80.84-111.84c60.3-83.92,109.13-150.65,58.97-165.96c-17.94-4.23-161.24,0.92-183.58-0.26
			c-4.09-1.74-16.86,1.24-19.83,3.12c-5.51,3.47-10.48,9.29-13.02,16.05c-16.35,41.77-34.94,80.61-55.81,116.51
			c-19.96,32.67-40.95,67.21-62.58,90.36c-52.77,60.21-65.56-10.68-61.54-57.23c0.5-44.98,2.43-86.4,3.13-129.46
			c0.32-27.65-5.5-54.1-35.45-59.56c-45.83-11.67-175.74-7.61-195.05,5.7c-6.66,2.32-33.17,23.53-22.43,27.95
			c23.66,4.03,39.67,11.36,47.46,28.48c19.1,48.24,14.06,121.49,7.04,168.29c-12.21,82.86-70.32,21.21-94.66-21.76
			c-28.06-48.89-60.05-109.21-82.92-164.68c-5.83-15.62-19.74-22.88-35.46-25.89c-18.87,4.09-161.37-8.62-172.62,10.87
			c-20.15,27.56,113.87,246.79,131.4,275.49c36.02,53.37,78.61,114.89,119.96,153.28c43.01,38.05,98.38,75.47,159.06,91.4
			c42.4,13.32,93.3,7.36,136.12,8.55c23.64-1.34,36.17-15.58,35.45-37.8c-2.33-37.56,15.96-118.64,65.98-83.61
			c47.74,36.12,79.48,104.53,141.6,120.92c20.97,7.27,139.25-1.22,162.7,0.53C990.66,782.71,1008.42,761.55,994.56,729.62z"/>
</svg>
