<svg viewBox="0 0 1000 1000">
    <path class="st1" d="M861.35,212.29c-86.61-69.64-223.63-81.43-229.45-81.93c-19.6,1-20.84,9.68-28.16,30.89
		c19.67,1.77,228.2,49.86,198.34,98.62c-4.1,6.64-11.24,10.28-18.52,10.28c-202.94-96.62-353.65-106.13-556.38-3.29
		c-10.23,6.38-23.61,3.2-29.98-6.99c-29.98-48.84,179.09-96.87,198.33-98.62c-7.23-21.64-8.67-29.71-28.2-30.84
		c-5.78,0.46-142.79,12.24-230.59,82.88C93.24,253.52-10.45,519.73,2.09,728.5c63.76,111.43,235.84,140.31,275.9,141.52
		c6.96,0,13.51-3.32,17.6-8.96c0,0,39.8-54.68,39.8-54.68C220.94,772.3,141.75,728.9,168.18,698.08c7.96-9.01,21.66-9.87,30.66-1.96
		c114.35,112.13,489.45,110.67,601.6-0.06c9.01-7.81,22.75-6.99,30.66,2.07c26.88,30.39-53.44,74.5-167.22,108.22
		c0,0,39.8,54.68,39.8,54.68c4.09,5.64,10.64,8.96,17.6,8.96c37.43-0.69,231.63-33.72,278.72-152.25
		C1000,503.47,908.34,255.64,861.35,212.29z M358.19,630.7c-99.49-0.36-99.53-173.7,0.01-174.04
		C457.71,457.01,457.7,630.37,358.19,630.7z M641.04,630.7c-99.49-0.36-99.53-173.7,0.01-174.04
		C741.06,458.44,741.04,628.94,641.04,630.7z"/>
</svg>
