<svg xmlns="http://www.w3.org/2000/svg" xmlns:xlink="http://www.w3.org/1999/xlink"><defs><style>
    .sprite-symbol-usage {display: none;}
    .sprite-symbol-usage:target {display: inline;}
  </style><symbol viewBox="0 0 1000 1000" id="discord"><path class="st1" d="M861.35 212.29c-86.61-69.64-223.63-81.43-229.45-81.93-19.6 1-20.84 9.68-28.16 30.89 19.67 1.77 228.2 49.86 198.34 98.62-4.1 6.64-11.24 10.28-18.52 10.28-202.94-96.62-353.65-106.13-556.38-3.29-10.23 6.38-23.61 3.2-29.98-6.99-29.98-48.84 179.09-96.87 198.33-98.62-7.23-21.64-8.67-29.71-28.2-30.84-5.78.46-142.79 12.24-230.59 82.88C93.24 253.52-10.45 519.73 2.09 728.5c63.76 111.43 235.84 140.31 275.9 141.52 6.96 0 13.51-3.32 17.6-8.96l39.8-54.68c-114.45-34.08-193.64-77.48-167.21-108.3 7.96-9.01 21.66-9.87 30.66-1.96 114.35 112.13 489.45 110.67 601.6-.06 9.01-7.81 22.75-6.99 30.66 2.07 26.88 30.39-53.44 74.5-167.22 108.22l39.8 54.68a21.732 21.732 0 0017.6 8.96c37.43-.69 231.63-33.72 278.72-152.25 0-214.27-91.66-462.1-138.65-505.45zM358.19 630.7c-99.49-.36-99.53-173.7.01-174.04 99.51.35 99.5 173.71-.01 174.04zm282.85 0c-99.49-.36-99.53-173.7.01-174.04 100.01 1.78 99.99 172.28-.01 174.04z" /></symbol><symbol viewBox="0 0 1000 1000" id="git"><path class="st1" d="M443.29 12.44C-80.49 62.76-161.39 811.46 316.61 985.55c15.18 5.07 30.38-5.07 30.38-25.34v-81.09c-78.99 23.27-144.36-26.76-152.05-91.23-5.07-20.27-15.21-35.47-30.41-50.68-15.2-5.07-20.27-5.07-20.27-10.14 0-10.14 15.2-10.14 20.27-10.14 80.31 11.78 71.48 138.42 182.46 91.23 5.07-35.48 20.27-70.96 50.68-91.23-190.15-29.31-265.57-217.39-141.91-354.78-11.95-32.38-18.29-103.58 5.07-152.05 0 0 70.96 0 141.91 65.89 54.51-21.2 140.64-19.35 197.66 0 65.89-65.89 141.91-65.89 141.91-65.89 15.3 47.36 12.76 124.39 0 152.05 124.23 134.21 48.07 326.48-141.91 354.78 66.9 47.14 48.76 176.5 50.68 248.35 0 15.2 15.21 30.41 35.48 25.34C1222.59 784.45 1024.8-60.29 443.29 12.44z" /></symbol><symbol viewBox="0 0 1000 1000" id="google"><path class="st1" d="M990.1 400.04c0-.02-207.28-.04-207.28-.04h-83.78H500c-.01 0 .02 199.04.05 199.04 0 0 282.76.03 282.75.06-40.43 114.81-148.77 197.61-276.81 200.12-171.31 3.36-311.33-138.71-305.58-309.95 5.4-160.81 137.47-289.51 299.59-289.51 76.4 0 146.11 28.59 199.04 75.65 0 0 141.68-141.83 141.66-141.84C738.28 38.17 595.77-14.75 441.21 2.88 222.98 27.77 24.54 229.25 2.6 447.79c-35.69 355.47 301.29 644.68 667.11 523.78 141.23-46.67 252.87-157.2 300.8-298.01 32.36-95.07 36.81-188.22 19.59-273.52z" /></symbol><symbol viewBox="0 0 1000 1000" id="vk"><path d="M994.56 729.62c-19.12-37.25-53.25-74.45-105.08-122.99h-.53c-33.28-35.8-61.03-45.12-49.55-84.42 3.08-13.35 63.62-89 80.84-111.84 60.3-83.92 109.13-150.65 58.97-165.96-17.94-4.23-161.24.92-183.58-.26-4.09-1.74-16.86 1.24-19.83 3.12-5.51 3.47-10.48 9.29-13.02 16.05-16.35 41.77-34.94 80.61-55.81 116.51-19.96 32.67-40.95 67.21-62.58 90.36-52.77 60.21-65.56-10.68-61.54-57.23.5-44.98 2.43-86.4 3.13-129.46.32-27.65-5.5-54.1-35.45-59.56-45.83-11.67-175.74-7.61-195.05 5.7-6.66 2.32-33.17 23.53-22.43 27.95 23.66 4.03 39.67 11.36 47.46 28.48 19.1 48.24 14.06 121.49 7.04 168.29-12.21 82.86-70.32 21.21-94.66-21.76-28.06-48.89-60.05-109.21-82.92-164.68-5.83-15.62-19.74-22.88-35.46-25.89-18.87 4.09-161.37-8.62-172.62 10.87-20.15 27.56 113.87 246.79 131.4 275.49 36.02 53.37 78.61 114.89 119.96 153.28 43.01 38.05 98.38 75.47 159.06 91.4 42.4 13.32 93.3 7.36 136.12 8.55 23.64-1.34 36.17-15.58 35.45-37.8-2.33-37.56 15.96-118.64 65.98-83.61 47.74 36.12 79.48 104.53 141.6 120.92 20.97 7.27 139.25-1.22 162.7.53 36.5 1.05 54.26-20.11 40.4-52.04z" /></symbol><symbol viewBox="0 0 1000 1000" id="yandex"><path class="st1" d="M714.96-.29H569.38c-143.04 0-257.16 113.37-257.16 333.43 0 132.04 51.56 229.4 156.25 277.41L273.08 978.66c-6.38 12.05 0 21.34 10.21 21.34h90.65c7.67 0 12.8-2.67 15.34-9.29l183.43-365.82h52.1l-.33 365.82c0 4 3.83 9.29 8.92 9.29h85.4c7.67 0 10.21-4 10.21-10.63V13.04c0-9.33-5.13-13.33-14.05-13.33zm-90.15 541.82h-62.52c-62.52 0-145.88-48.35-145.88-208.39 0-166.76 67.98-250.07 145.88-250.07h62.52v458.46z" /></symbol></defs><use id="discord-usage" xlink:href="#discord" class="sprite-symbol-usage" /><use id="git-usage" xlink:href="#git" class="sprite-symbol-usage" /><use id="google-usage" xlink:href="#google" class="sprite-symbol-usage" /><use id="vk-usage" xlink:href="#vk" class="sprite-symbol-usage" /><use id="yandex-usage" xlink:href="#yandex" class="sprite-symbol-usage" /></svg>